<mxfile host="app.diagrams.net" agent="Mozilla/5.0 (Windows NT 10.0; Win64; x64) AppleWebKit/537.36 (KHTML, like Gecko) Chrome/133.0.0.0 Safari/537.36" version="26.0.14">
  <diagram name="Page-1" id="z5ygo8aueXD7QbDK779G">
    <mxGraphModel dx="2756" dy="3129" grid="0" gridSize="10" guides="1" tooltips="1" connect="1" arrows="1" fold="1" page="0" pageScale="1" pageWidth="850" pageHeight="1100" math="0" shadow="0">
      <root>
        <mxCell id="0" />
        <mxCell id="1" parent="0" />
        <mxCell id="PnSv_0IQH46BmFg6rcT1-12" value="" style="rounded=0;whiteSpace=wrap;html=1;direction=west;" parent="1" vertex="1">
          <mxGeometry x="-550" y="-1786" width="412" height="1900" as="geometry" />
        </mxCell>
        <mxCell id="PnSv_0IQH46BmFg6rcT1-1" value="Chief Mechanic" style="shape=umlActor;verticalLabelPosition=bottom;verticalAlign=top;html=1;outlineConnect=0;" parent="1" vertex="1">
          <mxGeometry x="-645" y="-786" width="30" height="60" as="geometry" />
        </mxCell>
        <mxCell id="PnSv_0IQH46BmFg6rcT1-3" value="Upload invoices, warranties" style="ellipse;whiteSpace=wrap;html=1;" parent="1" vertex="1">
          <mxGeometry x="-490" y="-832" width="120" height="80" as="geometry" />
        </mxCell>
        <mxCell id="PnSv_0IQH46BmFg6rcT1-4" value="Upload&lt;span style=&quot;background-color: transparent; color: light-dark(rgb(0, 0, 0), rgb(255, 255, 255));&quot;&gt;&amp;nbsp;repair/&lt;/span&gt;&lt;div&gt;&lt;span style=&quot;background-color: transparent; color: light-dark(rgb(0, 0, 0), rgb(255, 255, 255));&quot;&gt;overhaul events with scan reports and other evidence&lt;/span&gt;&lt;/div&gt;" style="ellipse;whiteSpace=wrap;html=1;" parent="1" vertex="1">
          <mxGeometry x="-490" y="-726" width="120" height="80" as="geometry" />
        </mxCell>
        <mxCell id="PnSv_0IQH46BmFg6rcT1-5" value="" style="ellipse;whiteSpace=wrap;html=1;" parent="1" vertex="1">
          <mxGeometry x="-490" y="-605" width="120" height="80" as="geometry" />
        </mxCell>
        <mxCell id="PnSv_0IQH46BmFg6rcT1-6" value="Record Service History" style="ellipse;whiteSpace=wrap;html=1;" parent="1" vertex="1">
          <mxGeometry x="-490" y="-938" width="120" height="80" as="geometry" />
        </mxCell>
        <mxCell id="PnSv_0IQH46BmFg6rcT1-9" style="edgeStyle=none;curved=1;rounded=0;orthogonalLoop=1;jettySize=auto;html=1;fontSize=12;startSize=8;endSize=8;" parent="1" source="PnSv_0IQH46BmFg6rcT1-7" edge="1">
          <mxGeometry relative="1" as="geometry">
            <mxPoint x="-630" y="-697.0869193699048" as="targetPoint" />
          </mxGeometry>
        </mxCell>
        <mxCell id="PnSv_0IQH46BmFg6rcT1-7" value="Job Mechanic" style="shape=umlActor;verticalLabelPosition=bottom;verticalAlign=top;html=1;outlineConnect=0;" parent="1" vertex="1">
          <mxGeometry x="-645" y="-646" width="30" height="60" as="geometry" />
        </mxCell>
      </root>
    </mxGraphModel>
  </diagram>
</mxfile>
